<svg data-v-fde0c5aa="" xmlns="http://www.w3.org/2000/svg" viewBox="0 0 300 300" class="iconAboveSlogan"><!----><defs data-v-fde0c5aa=""><linearGradient data-v-fde0c5aa="" gradientTransform="rotate(25)" id="a0892cdc-c897-44dc-8295-8bb857e22c12" x1="0%" y1="0%" x2="100%" y2="0%"><stop data-v-fde0c5aa="" offset="0%" stop-color="#21690F" stop-opacity="1"></stop><stop data-v-fde0c5aa="" offset="100%" stop-color="#88C848" stop-opacity="1"></stop></linearGradient></defs><rect data-v-fde0c5aa="" fill="url(#a0892cdc-c897-44dc-8295-8bb857e22c12)" x="0" y="0" width="300px" height="300px" class="logo-background-square"></rect><defs data-v-fde0c5aa=""><!----></defs><g data-v-fde0c5aa="" id="4f0fcf84-792b-4e66-bbb5-9f5189bbf21f" fill="#ffffff" transform="matrix(5.807460293534859,0,0,5.807460293534859,13.49564444354883,136.69595918362253)"><path d="M1.26 9.70L2.88 10.64L6.37 10.64L6.37 13.69L2.52 13.69L2.52 12.57L1.12 12.57L1.12 14.01L2.74 14.95L6.15 14.95L7.77 14.01L7.77 10.18L6.15 9.24L2.66 9.24L2.66 6.27L6.37 6.27L6.37 7.39L7.77 7.39L7.77 5.95L6.15 5.01L2.88 5.01L1.26 5.95ZM16.10 14.01L16.10 8.75L14.48 7.81L11.77 7.81L10.15 8.75L10.15 14.01L11.77 14.95L14.48 14.95ZM11.51 9.03L14.74 9.03L14.74 13.73L11.51 13.73ZM19.96 14.88L21.38 14.88L21.38 13.66L19.70 13.66L19.70 4.66L18.34 4.66L18.34 13.94ZM23.86 12.01L26.67 12.01L26.67 13.73L23.86 13.73ZM24.12 14.95L25.68 14.95L26.67 14.38L27.66 14.95L28.03 14.95L28.03 8.82L26.40 7.88L23.20 7.88L23.20 9.10L26.67 9.10L26.67 10.79L24.12 10.79L22.50 11.73L22.50 14.01ZM34.17 9.10L34.17 7.88L32.62 7.88L31.63 8.46L31.29 7.88L30.27 7.88L30.27 14.88L31.63 14.88L31.63 9.10ZM35.85 14.88L37.25 14.88L37.25 11.12L40.74 11.12L42.36 10.18L42.36 6.02L40.74 5.08L35.85 5.08ZM37.25 6.34L40.96 6.34L40.96 9.86L37.25 9.86ZM45.82 7.88L44.46 7.88L44.46 14.88L45.82 14.88ZM44.39 6.16L45.89 6.16L45.89 4.66L44.39 4.66Z"></path></g><defs data-v-fde0c5aa=""><!----></defs><g data-v-fde0c5aa="" id="4e882b2f-f26c-4187-b701-67bf18e38b6e" stroke="none" fill="#ffffff" transform="matrix(1.4510757786698059,0,0,1.4510757786698059,103.56557508256623,54.340949209149116)"><path d="M11 9h6v2h-6zM19 9h6v2h-6zM27 9h6v2h-6zM35 9h6v2h-6zM9 11h2v6H9zM11 17h6v2h-6zM17 11h2v6h-2zM19 17h6v2h-6zM25 11h2v6h-2zM27 17h6v2h-6zM33 11h2v6h-2zM35 17h6v2h-6zM9 19h2v6H9zM11 25h6v2h-6zM17 19h2v6h-2zM19 25h6v2h-6zM25 19h2v6h-2zM27 25h6v2h-6zM33 19h2v6h-2zM35 25h6v2h-6zM41 11h2v6h-2zM41 19h2v6h-2z"></path><path d="M60 41v-4h-8v4h-8v-4h-8v4h-3v20h-4V35h22V1H1v34h22v26h-6v2h46V41h-3zM17 27v6h-6v-6H9v6H3v-6h6v-2H3v-6h6v-2H3v-6h6V9H3V3h6v6h2V3h6v6h2V3h6v6h2V3h6v6h2V3h6v6h2V3h6v6h-6v2h6v6h-6v2h6v6h-6v2h6v6h-6v-6h-2v6h-6v-6h-2v6h-6v-6h-2v6h-6v-6h-2zm8 8h2v26h-2V35zm29 4h4v2h-4v-2zm-16 0h4v2h-4v-2zm23 22H35V43h26v18z"></path><path d="M39 50h2v-2h2v-2h-2v-2h-2v2h-2v2h2zM53 46h6v2h-6z"></path></g><defs data-v-fde0c5aa=""><!----></defs><g data-v-fde0c5aa="" id="f9a899c1-6c97-4eec-9e06-a4c7f28541e0" fill="#ffffff" transform="matrix(1.0669146765970823,0,0,1.0669146765970823,51.91319691515299,231.84243349325038)"><path d="M5.25 2.10C2.44 2.10 0.55 4.21 0.55 6.85C0.55 9.48 2.44 11.59 5.25 11.59C8.06 11.59 9.95 9.48 9.95 6.85C9.95 4.21 8.06 2.10 5.25 2.10ZM5.25 10.57C3.00 10.57 1.60 8.93 1.60 6.85C1.60 4.76 3.00 3.12 5.25 3.12C7.50 3.12 8.90 4.76 8.90 6.85C8.90 8.93 7.50 10.57 5.25 10.57ZM21.56 2.56L21.56 1.57L21.48 1.57C19.87 1.57 18.89 2.34 18.89 3.86L18.89 4.48L17.68 4.48L17.68 5.40L18.89 5.40L18.89 11.48L19.94 11.48L19.94 5.40L21.56 5.40L21.56 4.48L19.94 4.48L19.94 3.95C19.94 2.98 20.44 2.56 21.42 2.56ZM32.86 2.56L32.86 1.57L32.77 1.57C31.16 1.57 30.18 2.34 30.18 3.86L30.18 4.48L28.98 4.48L28.98 5.40L30.18 5.40L30.18 11.48L31.23 11.48L31.23 5.40L32.86 5.40L32.86 4.48L31.23 4.48L31.23 3.95C31.23 2.98 31.74 2.56 32.72 2.56ZM40.49 7.85L43.99 7.85L43.99 6.83L40.49 6.83ZM56.84 2.10C54.05 2.10 52.28 4.21 52.28 6.85C52.28 9.48 53.98 11.59 56.81 11.59C58.49 11.59 59.58 10.74 60.17 9.84L60.17 11.48L61.14 11.48L61.14 6.55L56.78 6.55L56.78 7.50L60.17 7.50C60.17 9.44 58.58 10.57 56.90 10.57C54.64 10.57 53.33 8.93 53.33 6.85C53.33 4.76 54.67 3.12 56.92 3.12C58.34 3.12 59.35 3.74 59.91 4.73L61.05 4.73C60.37 3.18 58.83 2.10 56.84 2.10ZM73.39 4.37C71.65 4.37 70.95 5.73 70.81 6.20L70.81 4.48L69.76 4.48L69.76 11.48L70.81 11.48L70.81 8.40C70.81 6.86 71.76 5.42 73.33 5.42L73.46 5.42L73.46 4.37ZM81.59 11.48L82.64 11.48L82.64 4.48L81.59 4.48ZM81.55 1.93L81.55 3.30L82.68 3.30L82.68 1.93ZM94.42 4.37C92.37 4.37 91.03 5.98 91.03 7.98C91.03 9.98 92.37 11.59 94.42 11.59C95.58 11.59 96.40 11.12 96.92 10.36L96.92 11.48L97.97 11.48L97.97 1.68L96.92 1.68L96.92 5.61C96.40 4.86 95.58 4.37 94.42 4.37ZM94.56 10.64C93.00 10.64 92.08 9.42 92.08 7.98C92.08 6.54 93.00 5.32 94.56 5.32C96.11 5.32 96.98 6.54 96.98 7.98C96.98 9.42 96.11 10.64 94.56 10.64ZM118.05 8.18L121.17 8.18C123.14 8.18 124.36 7.03 124.36 5.19C124.36 3.37 123.14 2.21 121.17 2.21L117.00 2.21L117.00 11.48L118.05 11.48ZM121.10 3.21C122.56 3.21 123.31 3.96 123.31 5.19C123.31 6.44 122.56 7.20 121.10 7.20L118.05 7.20L118.05 3.21ZM135.52 4.37C133.38 4.37 132.05 5.98 132.05 7.98C132.05 9.98 133.38 11.59 135.52 11.59C137.66 11.59 138.99 9.98 138.99 7.98C138.99 5.98 137.66 4.37 135.52 4.37ZM135.52 10.64C133.97 10.64 133.10 9.42 133.10 7.98C133.10 6.54 133.97 5.32 135.52 5.32C137.07 5.32 137.94 6.54 137.94 7.98C137.94 9.42 137.07 10.64 135.52 10.64ZM153.44 11.48L154.64 11.48L156.84 4.48L155.72 4.48L154.04 10.18L152.26 4.48L151.12 4.48L149.34 10.18L147.66 4.48L146.54 4.48L148.74 11.48L149.94 11.48L151.69 5.89ZM167.94 10.64C166.53 10.64 165.62 9.65 165.47 8.40L171.33 8.40L171.33 7.98C171.33 5.98 170.00 4.37 167.86 4.37C165.72 4.37 164.39 5.98 164.39 7.98C164.39 9.98 165.79 11.59 167.93 11.59C169.60 11.59 170.63 10.72 171.12 9.46L169.97 9.46C169.60 10.16 168.92 10.64 167.94 10.64ZM167.86 5.32C169.20 5.32 170.04 6.23 170.24 7.42L165.48 7.42C165.68 6.23 166.52 5.32 167.86 5.32ZM183.25 4.37C181.51 4.37 180.81 5.73 180.67 6.20L180.67 4.48L179.62 4.48L179.62 11.48L180.67 11.48L180.67 8.40C180.67 6.86 181.62 5.42 183.19 5.42L183.32 5.42L183.32 4.37Z"></path></g></svg>